<svg width="26" height="26" viewBox="0 0 26 26" fill="none" xmlns="http://www.w3.org/2000/svg">
<path d="M10.2665 25.8086H1.30133C0.707255 25.8086 0.221191 25.3316 0.221191 24.7486V10.1207C0.221191 9.85573 0.329206 9.53773 0.545234 9.37873L9.5104 1.16378C9.83445 0.898781 10.2665 0.792781 10.6446 0.95178C11.0766 1.16378 11.2926 1.53478 11.2926 1.95877V24.8016C11.2926 25.3316 10.8066 25.8086 10.2665 25.8086ZM2.32747 23.7416H9.18636V4.34376L2.32747 10.5977V23.7416Z" fill="white"/>
<path d="M24.5244 25.8086H10.2125C9.61842 25.8086 9.13235 25.3316 9.13235 24.7487V12.2937C9.13235 11.7107 9.61842 11.2337 10.2125 11.2337H24.5244C25.1184 11.2337 25.6045 11.7107 25.6045 12.2937V24.8017C25.6045 25.3316 25.1184 25.8086 24.5244 25.8086ZM11.2926 23.7417H23.4982V13.3007H11.2926V23.7417Z" fill="white"/>
<path d="M19.4477 25.8086H15.2891C14.6951 25.8086 14.209 25.3316 14.209 24.7486V18.2827C14.209 17.6997 14.6951 17.2227 15.2891 17.2227H19.4477C20.0418 17.2227 20.5278 17.6997 20.5278 18.2827V24.7486C20.5278 25.3316 20.0418 25.8086 19.4477 25.8086ZM16.3693 23.7417H18.4216V19.3427H16.3693V23.7417Z" fill="white"/>
</svg>
